<mxfile host="app.diagrams.net" modified="2022-09-12T13:17:20.856Z" agent="5.0 (Windows NT 10.0; Win64; x64) AppleWebKit/537.36 (KHTML, like Gecko) Chrome/105.0.0.0 Safari/537.36 Edg/105.0.1343.33" etag="F2Ji9jKTc9wcNZZE96WM" version="20.3.0" type="github">
  <diagram id="zUBnmu1D_7907EXv7T7O" name="第 1 页">
    <mxGraphModel dx="920" dy="1728" grid="1" gridSize="10" guides="1" tooltips="1" connect="1" arrows="1" fold="1" page="1" pageScale="1" pageWidth="827" pageHeight="1169" math="0" shadow="0">
      <root>
        <mxCell id="0" />
        <mxCell id="1" parent="0" />
        <mxCell id="R7kvYIfmjr_gIhKshBew-4" style="edgeStyle=orthogonalEdgeStyle;orthogonalLoop=1;jettySize=auto;html=1;exitX=1;exitY=0.5;exitDx=0;exitDy=0;entryX=0;entryY=0.75;entryDx=0;entryDy=0;rounded=1;strokeWidth=3;strokeColor=#808080;" edge="1" parent="1" source="R7kvYIfmjr_gIhKshBew-1" target="R7kvYIfmjr_gIhKshBew-2">
          <mxGeometry relative="1" as="geometry">
            <Array as="points">
              <mxPoint x="380" y="230" />
              <mxPoint x="380" y="145" />
            </Array>
          </mxGeometry>
        </mxCell>
        <mxCell id="R7kvYIfmjr_gIhKshBew-5" style="edgeStyle=orthogonalEdgeStyle;orthogonalLoop=1;jettySize=auto;html=1;entryX=0;entryY=0.5;entryDx=0;entryDy=0;rounded=1;strokeWidth=3;strokeColor=#808080;" edge="1" parent="1" source="R7kvYIfmjr_gIhKshBew-1">
          <mxGeometry relative="1" as="geometry">
            <mxPoint x="414" y="330" as="targetPoint" />
            <Array as="points">
              <mxPoint x="380" y="230" />
              <mxPoint x="380" y="330" />
            </Array>
          </mxGeometry>
        </mxCell>
        <mxCell id="R7kvYIfmjr_gIhKshBew-13" style="edgeStyle=orthogonalEdgeStyle;orthogonalLoop=1;jettySize=auto;html=1;entryX=0;entryY=0.5;entryDx=0;entryDy=0;rounded=1;strokeWidth=3;strokeColor=#808080;" edge="1" parent="1" source="R7kvYIfmjr_gIhKshBew-1" target="R7kvYIfmjr_gIhKshBew-12">
          <mxGeometry relative="1" as="geometry">
            <Array as="points">
              <mxPoint x="120" y="230" />
              <mxPoint x="120" y="60" />
            </Array>
          </mxGeometry>
        </mxCell>
        <mxCell id="R7kvYIfmjr_gIhKshBew-1" value="update&lt;br style=&quot;font-size: 14px;&quot;&gt;userinformation" style="whiteSpace=wrap;html=1;rounded=1;fillColor=#dae8fc;strokeColor=#6c8ebf;fontSize=14;fontStyle=1" vertex="1" parent="1">
          <mxGeometry x="169" y="200" width="120" height="60" as="geometry" />
        </mxCell>
        <mxCell id="R7kvYIfmjr_gIhKshBew-9" style="edgeStyle=orthogonalEdgeStyle;orthogonalLoop=1;jettySize=auto;html=1;exitX=1;exitY=0.5;exitDx=0;exitDy=0;entryX=0;entryY=0.75;entryDx=0;entryDy=0;rounded=1;strokeWidth=3;strokeColor=#808080;" edge="1" parent="1" source="R7kvYIfmjr_gIhKshBew-2" target="R7kvYIfmjr_gIhKshBew-6">
          <mxGeometry relative="1" as="geometry" />
        </mxCell>
        <mxCell id="R7kvYIfmjr_gIhKshBew-10" style="edgeStyle=orthogonalEdgeStyle;orthogonalLoop=1;jettySize=auto;html=1;exitX=1;exitY=0.5;exitDx=0;exitDy=0;rounded=1;strokeWidth=3;strokeColor=#808080;" edge="1" parent="1" source="R7kvYIfmjr_gIhKshBew-2" target="R7kvYIfmjr_gIhKshBew-7">
          <mxGeometry relative="1" as="geometry" />
        </mxCell>
        <mxCell id="R7kvYIfmjr_gIhKshBew-11" style="edgeStyle=orthogonalEdgeStyle;orthogonalLoop=1;jettySize=auto;html=1;entryX=0;entryY=0.5;entryDx=0;entryDy=0;rounded=1;strokeWidth=3;strokeColor=#808080;" edge="1" parent="1" source="R7kvYIfmjr_gIhKshBew-2" target="R7kvYIfmjr_gIhKshBew-8">
          <mxGeometry relative="1" as="geometry" />
        </mxCell>
        <mxCell id="R7kvYIfmjr_gIhKshBew-2" value="get labels" style="whiteSpace=wrap;html=1;rounded=1;fillColor=#dae8fc;strokeColor=#6c8ebf;fontSize=14;fontStyle=1" vertex="1" parent="1">
          <mxGeometry x="414" y="100" width="120" height="60" as="geometry" />
        </mxCell>
        <mxCell id="R7kvYIfmjr_gIhKshBew-18" style="edgeStyle=orthogonalEdgeStyle;orthogonalLoop=1;jettySize=auto;html=1;entryX=0;entryY=0.5;entryDx=0;entryDy=0;rounded=1;strokeWidth=3;strokeColor=#808080;" edge="1" parent="1" source="R7kvYIfmjr_gIhKshBew-6" target="R7kvYIfmjr_gIhKshBew-17">
          <mxGeometry relative="1" as="geometry" />
        </mxCell>
        <mxCell id="R7kvYIfmjr_gIhKshBew-6" value="Text-CNN for topic" style="whiteSpace=wrap;html=1;rounded=1;fillColor=#1ba1e2;fontColor=#ffffff;strokeColor=#006EAF;" vertex="1" parent="1">
          <mxGeometry x="600" y="-1" width="120" height="60" as="geometry" />
        </mxCell>
        <mxCell id="R7kvYIfmjr_gIhKshBew-21" style="edgeStyle=orthogonalEdgeStyle;orthogonalLoop=1;jettySize=auto;html=1;rounded=1;strokeWidth=3;strokeColor=#808080;" edge="1" parent="1" source="R7kvYIfmjr_gIhKshBew-7" target="R7kvYIfmjr_gIhKshBew-17">
          <mxGeometry relative="1" as="geometry" />
        </mxCell>
        <mxCell id="R7kvYIfmjr_gIhKshBew-7" value="NER for&amp;nbsp;&lt;br&gt;per, loc, org, time" style="whiteSpace=wrap;html=1;rounded=1;fillColor=#1ba1e2;fontColor=#ffffff;strokeColor=#006EAF;" vertex="1" parent="1">
          <mxGeometry x="600" y="100" width="120" height="60" as="geometry" />
        </mxCell>
        <mxCell id="R7kvYIfmjr_gIhKshBew-20" style="edgeStyle=orthogonalEdgeStyle;orthogonalLoop=1;jettySize=auto;html=1;entryX=0;entryY=0.5;entryDx=0;entryDy=0;rounded=1;strokeWidth=3;strokeColor=#808080;" edge="1" parent="1" source="R7kvYIfmjr_gIhKshBew-8" target="R7kvYIfmjr_gIhKshBew-17">
          <mxGeometry relative="1" as="geometry" />
        </mxCell>
        <mxCell id="R7kvYIfmjr_gIhKshBew-8" value="regex for contacts" style="whiteSpace=wrap;html=1;rounded=1;fillColor=#1ba1e2;fontColor=#ffffff;strokeColor=#006EAF;" vertex="1" parent="1">
          <mxGeometry x="600" y="199" width="120" height="60" as="geometry" />
        </mxCell>
        <mxCell id="R7kvYIfmjr_gIhKshBew-15" style="edgeStyle=orthogonalEdgeStyle;orthogonalLoop=1;jettySize=auto;html=1;rounded=1;strokeWidth=3;strokeColor=#808080;" edge="1" parent="1" source="R7kvYIfmjr_gIhKshBew-12">
          <mxGeometry relative="1" as="geometry">
            <mxPoint x="330" y="230" as="targetPoint" />
          </mxGeometry>
        </mxCell>
        <mxCell id="R7kvYIfmjr_gIhKshBew-12" value="prerocessing" style="whiteSpace=wrap;html=1;rounded=1;fillColor=#1ba1e2;fontColor=#ffffff;strokeColor=#006EAF;" vertex="1" parent="1">
          <mxGeometry x="169" y="30" width="120" height="60" as="geometry" />
        </mxCell>
        <mxCell id="R7kvYIfmjr_gIhKshBew-14" value="data" style="text;html=1;align=center;verticalAlign=middle;whiteSpace=wrap;rounded=1;fillColor=#f5f5f5;fontColor=#333333;strokeColor=#666666;" vertex="1" parent="1">
          <mxGeometry x="90" y="130" width="60" height="30" as="geometry" />
        </mxCell>
        <mxCell id="R7kvYIfmjr_gIhKshBew-16" value="clear data" style="text;html=1;align=center;verticalAlign=middle;whiteSpace=wrap;rounded=1;fillColor=#f5f5f5;fontColor=#333333;strokeColor=#666666;" vertex="1" parent="1">
          <mxGeometry x="300" y="130" width="60" height="30" as="geometry" />
        </mxCell>
        <mxCell id="R7kvYIfmjr_gIhKshBew-26" style="edgeStyle=orthogonalEdgeStyle;orthogonalLoop=1;jettySize=auto;html=1;exitX=0.5;exitY=1;exitDx=0;exitDy=0;entryX=1;entryY=0.5;entryDx=0;entryDy=0;rounded=1;strokeWidth=3;strokeColor=#808080;" edge="1" parent="1" source="R7kvYIfmjr_gIhKshBew-17" target="R7kvYIfmjr_gIhKshBew-22">
          <mxGeometry relative="1" as="geometry" />
        </mxCell>
        <mxCell id="R7kvYIfmjr_gIhKshBew-29" style="edgeStyle=orthogonalEdgeStyle;orthogonalLoop=1;jettySize=auto;html=1;exitX=0.5;exitY=1;exitDx=0;exitDy=0;fontSize=12;endArrow=open;rounded=1;strokeWidth=3;strokeColor=#808080;" edge="1" parent="1" source="R7kvYIfmjr_gIhKshBew-17" target="R7kvYIfmjr_gIhKshBew-27">
          <mxGeometry relative="1" as="geometry">
            <Array as="points">
              <mxPoint x="870" y="420" />
              <mxPoint x="680" y="420" />
            </Array>
          </mxGeometry>
        </mxCell>
        <mxCell id="R7kvYIfmjr_gIhKshBew-17" value="all user information" style="whiteSpace=wrap;html=1;rounded=1;fillColor=#dae8fc;strokeColor=#6c8ebf;fontSize=14;fontStyle=1" vertex="1" parent="1">
          <mxGeometry x="810" y="100" width="120" height="60" as="geometry" />
        </mxCell>
        <mxCell id="R7kvYIfmjr_gIhKshBew-30" style="edgeStyle=orthogonalEdgeStyle;orthogonalLoop=1;jettySize=auto;html=1;exitX=0.5;exitY=1;exitDx=0;exitDy=0;entryX=0;entryY=0.5;entryDx=0;entryDy=0;fontSize=12;endArrow=open;rounded=1;strokeWidth=3;strokeColor=#808080;" edge="1" parent="1" source="R7kvYIfmjr_gIhKshBew-22" target="R7kvYIfmjr_gIhKshBew-27">
          <mxGeometry relative="1" as="geometry" />
        </mxCell>
        <mxCell id="R7kvYIfmjr_gIhKshBew-22" value="Kmeans" style="whiteSpace=wrap;html=1;rounded=1;fillColor=#1ba1e2;fontColor=#ffffff;strokeColor=#006EAF;" vertex="1" parent="1">
          <mxGeometry x="414" y="300" width="120" height="60" as="geometry" />
        </mxCell>
        <mxCell id="R7kvYIfmjr_gIhKshBew-27" value="update&lt;br style=&quot;font-size: 14px;&quot;&gt;usertable" style="whiteSpace=wrap;html=1;fontSize=14;rounded=1;fillColor=#dae8fc;strokeColor=#6c8ebf;fontStyle=1" vertex="1" parent="1">
          <mxGeometry x="630" y="390" width="120" height="60" as="geometry" />
        </mxCell>
        <mxCell id="R7kvYIfmjr_gIhKshBew-32" value="" style="rounded=0;whiteSpace=wrap;html=1;fontSize=14;fillColor=none;dashed=1;strokeColor=#4D4D4D;strokeWidth=2;" vertex="1" parent="1">
          <mxGeometry x="550" y="-10" width="230" height="280" as="geometry" />
        </mxCell>
        <mxCell id="R7kvYIfmjr_gIhKshBew-33" value="NLP" style="text;html=1;align=center;verticalAlign=middle;whiteSpace=wrap;rounded=1;fillColor=#f5f5f5;fontColor=#333333;strokeColor=none;fontSize=14;fontStyle=1" vertex="1" parent="1">
          <mxGeometry x="620" y="-50" width="80" height="30" as="geometry" />
        </mxCell>
      </root>
    </mxGraphModel>
  </diagram>
</mxfile>
